<svg xmlns="http://www.w3.org/2000/svg" xmlns:xlink="http://www.w3.org/1999/xlink" width="24" height="24" viewBox="0 0 24 24" fill="none">
<path   fill="rgba(255,255,255, 1)"  d="M10.0559 10.7929L12.0559 12.7929L11.3488 13.5L10.6416 12.7929L14.7929 8.64167L16.2071 10.0559L12.0559 14.2071L10.6416 14.2071L8.64165 12.2071L10.0559 10.7929ZM20 5.75432L20 10.8538L19 10.8538L20 10.8538L19 10.8538L20 10.8538Q20 13.5182 18.7808 15.8872Q17.5617 18.2563 15.3936 19.8049L15.3936 19.8049L13.1625 21.3986L12.5812 20.5849L13.1625 21.3986L12.5812 20.5849L13.1625 21.3986Q12.6409 21.7711 12 21.7711Q11.3591 21.7711 10.8375 21.3986L11.4188 20.5849L10.8375 21.3986L8.60638 19.8049L9.18762 18.9912L8.60638 19.8049L9.18762 18.9912L8.60638 19.8049Q6.43831 18.2563 5.21916 15.8872Q4 13.5182 4 10.8538L4 10.8538L4 5.75432L5 5.75432L4 5.75432L5 5.75432L4 5.75432Q4 5.0846 4.4033 4.54993Q4.80661 4.01526 5.45056 3.83128L5.72528 4.7928L5.45056 3.83128L11.4506 2.11699L11.4506 2.11699L11.4506 2.11699Q12 1.96001 12.5494 2.11699L12.5494 2.11699L18.5494 3.83128L18.5494 3.83128L18.5494 3.83128Q19.1934 4.01526 19.5967 4.54993Q20 5.0846 20 5.75432L19 5.75432L20 5.75432ZM18 5.75432L18 5.75432L18 5.75432L18.2747 4.7928L18 5.75432L18.2747 4.7928L18 5.75432L12 4.04004L12.2747 3.07852L12 4.04004L12 4.04004L11.7253 3.07852L12 4.04004L11.7253 3.07852L12 4.04004L6 5.75432L6 5.75432Q6 5.75432 6 5.75432L6 5.75432L6 5.75432L6 10.8538L5 10.8538L6 10.8538Q6 13.0338 6.99749 14.9721Q7.99498 16.9104 9.76886 18.1774L9.76886 18.1774L9.76886 18.1774L12 19.7711L12 19.7711L12 19.7711L12 19.7711L12 19.7711L14.2311 18.1774L14.8124 18.9912L14.2311 18.1774Q16.005 16.9104 17.0025 14.9721Q18 13.0338 18 10.8538L18 10.8538L18 10.8538L18 5.75432ZM10.6416 14.2071L11.3488 13.5L12.0559 14.2071C11.859 14.3985 11.6233 14.4962 11.3488 14.5C11.0742 14.4962 10.8385 14.3985 10.6416 14.2071ZM9.34875 12.5C8.79647 12.5 8.34875 12.0523 8.34875 11.5C8.34875 10.9477 8.79647 10.5 9.34875 10.5C9.90104 10.5 10.3488 10.9477 10.3488 11.5C10.3488 12.0523 9.90104 12.5 9.34875 12.5ZM15.5 10.3488C14.9477 10.3488 14.5 9.90106 14.5 9.34878C14.5 8.79649 14.9477 8.34878 15.5 8.34878C16.0523 8.34878 16.5 8.79649 16.5 9.34878C16.5 9.90106 16.0523 10.3488 15.5 10.3488Z">
</path>
</svg>
