<svg xmlns="http://www.w3.org/2000/svg" xmlns:xlink="http://www.w3.org/1999/xlink" width="24" height="24" viewBox="0 0 24 24" fill="none">
<path   fill="rgba(255,255,255, 1)"  d="M9 6L7 6L7 5L7 6C6.44772 6 6 6.44772 6 7L6 7L6 19L5 19L6 19C6 19.5523 6.44772 20 7 20L7 21L7 20L17 20L17 21L17 20C17.5523 20 18 19.5523 18 19L19 19L18 19L18 7L19 7L18 7C18 6.44772 17.5523 6 17 6L17 5L17 6L15 6L15 4L17 4L17 4C18.6569 4 20 5.34315 20 7L20 7L20 19L20 19C20 20.6569 18.6569 22 17 22L17 22L7 22L7 22C5.34315 22 4 20.6569 4 19L4 19L4 7L5 7L4 7C4 5.34315 5.34315 4 7 4L7 4L9 4L9 6ZM9 6C8.44772 6 8 5.55228 8 5C8 4.44772 8.44772 4 9 4C9.55228 4 10 4.44772 10 5C10 5.55228 9.55228 6 9 6ZM15 6C14.4477 6 14 5.55228 14 5C14 4.44772 14.4477 4 15 4C15.5523 4 16 4.44772 16 5C16 5.55228 15.5523 6 15 6Z">
</path>
<path    stroke="rgba(255,255,255, 1)" stroke-width="2" stroke-linejoin="round" stroke-linecap="round"  d="M9 12L15 12">
</path>
<path    stroke="rgba(255,255,255, 1)" stroke-width="2" stroke-linejoin="round" stroke-linecap="round"  d="M9 16L12 16">
</path>
<path   fill="rgba(255,255,255, 1)"  d="M11 2L13 2C14.6569 2 16 3.34315 16 5L16 7C16 7.55228 15.5523 8 15 8L9 8C8.44772 8 8 7.55228 8 7L8 5C8 3.34315 9.34315 2 11 2ZM11 4C10.4477 4 10 4.44772 10 5L10 7L9 7L9 6L15 6L15 7L14 7L14 5C14 4.44772 13.5523 4 13 4L11 4Z">
</path>
</svg>
