<svg xmlns="http://www.w3.org/2000/svg" xmlns:xlink="http://www.w3.org/1999/xlink" width="24" height="24" viewBox="0 0 24 24" fill="none">
<path   fill="rgba(255, 255, 255, 1)"  d="M19.2222 10.2222L19.2222 18L18.2222 18L19.2222 18C19.2222 19.6569 17.8791 21 16.2222 21L16.2222 20L16.2222 21L12 21L12 19L16.2222 19L16.2222 19C16.7745 19 17.2222 18.5523 17.2222 18L17.2222 18L17.2222 10.2222L19.2222 10.2222ZM18.9293 9.51512L20.7071 11.2929L19.2929 12.7071L17.5151 10.9293L18.9293 9.51512ZM17.5151 10.9293L16.7929 10.2071L18.2071 8.79289L18.9293 9.51512L17.5151 10.9293ZM6.77778 10.2222L6.77778 18L5.77778 18L6.77778 18C6.77778 18.5523 7.22549 19 7.77778 19L7.77778 20L7.77778 19L12 19L12 21L7.77778 21L7.77778 21C6.12092 21 4.77778 19.6569 4.77778 18L4.77778 18L4.77778 10.2222L6.77778 10.2222ZM5.07067 9.51512L10.5858 4L11.2929 4.70711L10.5858 4C11.3668 3.21895 12.6332 3.21895 13.4142 4L12.7071 4.70711L13.4142 4L18.2071 8.79289L16.7929 10.2071L12 5.41421L12 5.41421C12 5.41421 12 5.41421 12 5.41421L12 5.41421L6.48488 10.9293L5.07067 9.51512ZM6.48488 10.9293L4.70711 12.7071L3.29289 11.2929L5.07067 9.51512L6.48488 10.9293ZM16.5 9.5L16.5 6L18.5 6L18.5 9.5L16.5 9.5ZM11 20L11 15L13 15L13 20L11 20Z">
</path>
</svg>
