<svg xmlns="http://www.w3.org/2000/svg" xmlns:xlink="http://www.w3.org/1999/xlink" width="24" height="24" viewBox="0 0 24 24" fill="none">
<path d="M17 9C17 6.23858 14.7614 4 12 4C9.23858 4 7 6.23858 7 9L7 13.1707C5.83481 13.5825 5 14.6938 5 16L5 17L19 17L19 16C19 14.6938 18.1652 13.5825 17 13.1707L17 9Z" stroke="rgba(255, 255, 255, 1)" stroke-width="2" stroke-linejoin="round" stroke-linecap="round" >
</path>
<path   fill="rgba(255, 255, 255, 1)"  d="M11.0893 19.4131M11.0893 19.4131Q11.2093 19.6777 11.4524 19.8368L10.9049 20.6735L11.4524 19.8368L10.9049 20.6735L11.4524 19.8368Q11.6955 19.9958 11.986 19.9999L11.986 19.9999L11.986 19.9999Q12.2765 20.004 12.524 19.8517L12.524 19.8517L12.524 19.8517Q12.7714 19.6995 12.8988 19.4384L14.6964 20.3151Q14.3143 21.0985 13.572 21.5552L13.048 20.7035L13.572 21.5552L13.048 20.7035L13.572 21.5552Q12.8296 22.0119 11.9581 21.9997L11.9721 20.9998L11.9581 21.9997L11.9721 20.9998L11.9581 21.9997Q11.0866 21.9875 10.3573 21.5103L10.3573 21.5103L10.3573 21.5103Q9.628 21.033 9.26795 20.2393L11.0893 19.4131ZM10.1786 20.8262C9.62635 20.8262 9.17863 20.3785 9.17863 19.8262C9.17863 19.2739 9.62635 18.8262 10.1786 18.8262C10.7309 18.8262 11.1786 19.2739 11.1786 19.8262C11.1786 20.3785 10.7309 20.8262 10.1786 20.8262ZM13.7976 20.8767C13.2453 20.8767 12.7976 20.429 12.7976 19.8767C12.7976 19.3245 13.2453 18.8767 13.7976 18.8767C14.3499 18.8767 14.7976 19.3245 14.7976 19.8767C14.7976 20.429 14.3499 20.8767 13.7976 20.8767Z">
</path>
<path   fill="rgba(255, 255, 255, 1)"  d="M13 3L13 4L11 4L11 3L13 3ZM12 4C11.4477 4 11 3.55228 11 3C11 2.44772 11.4477 2 12 2C12.5523 2 13 2.44772 13 3C13 3.55228 12.5523 4 12 4ZM12 5C11.4477 5 11 4.55228 11 4C11 3.44772 11.4477 3 12 3C12.5523 3 13 3.44772 13 4C13 4.55228 12.5523 5 12 5Z">
</path>
</svg>
