<svg xmlns="http://www.w3.org/2000/svg" xmlns:xlink="http://www.w3.org/1999/xlink" width="24" height="24" viewBox="0 0 24 24" fill="none">
<path   fill="rgba(255,255,255, 1)"  d="M9 6L7 6L7 5L7 6C6.44772 6 6 6.44772 6 7L6 7L6 19L5 19L6 19C6 19.5523 6.44772 20 7 20L7 21L7 20L9 20L9 22L7 22L7 22C5.34315 22 4 20.6569 4 19L4 19L4 7L5 7L4 7C4 5.34315 5.34315 4 7 4L7 4L9 4L9 6ZM15 4L17 4L17 5L17 4C18.6569 4 20 5.34315 20 7L19 7L20 7L20 9L18 9L18 7L18 7C18 6.44772 17.5523 6 17 6L17 6L15 6L15 4Z">
</path>
<path   fill="rgba(255,255,255, 1)"  d="M12.5192 19.7911L14.7059 19.3537L14.902 20.3343L14.7059 19.3537L14.902 20.3343L14.7059 19.3537L14.7059 19.3537L14.7059 19.3537L18.7797 15.2798L18.7798 15.2798L20.7798 13.2798L21.4869 13.9869L20.7798 14.694L18.7929 12.7071L19.5 12L20.2071 12.7071L18.2071 14.7071L17.5 14L18.2071 14.7071L14.1332 18.7811L13.4261 18.074L14.1332 18.7811L13.4261 18.074L14.1332 18.7811L14.1332 18.7811L13.1526 18.585L14.1332 18.7811L13.6959 20.9678L12.7153 20.7716L12.5192 19.7911ZM12.9114 21.7522L11.7347 20.5755L12.1721 18.3888L12.1721 18.3888Q12.2908 17.7951 12.719 17.3669L12.719 17.3669L12.719 17.3669L16.7929 13.2929L16.7929 13.2929L18.7929 11.2929L20.2071 11.2929L22.194 13.2798L22.194 14.694L20.194 16.694L19.4869 15.9869L20.194 16.694L16.1201 20.7679L15.413 20.0608L16.1201 20.7679Q15.6919 21.1961 15.0981 21.3149L15.0981 21.3149L15.0981 21.3149L12.9114 21.7522ZM11.7347 20.5755L12.7153 20.7716L12.9114 21.7522C12.5646 21.8121 12.2635 21.7209 12.0082 21.4788C11.766 21.2234 11.6749 20.9223 11.7347 20.5755ZM22.194 14.694L21.4869 13.9869L22.194 13.2798C22.3854 13.4766 22.483 13.7123 22.4869 13.9869C22.483 14.2614 22.3854 14.4971 22.194 14.694ZM20.2071 11.2929L19.5 12L18.7929 11.2929C18.9898 11.1015 19.2255 11.0039 19.5 11C19.7745 11.0039 20.0102 11.1015 20.2071 11.2929Z">
</path>
<path   fill="rgba(255,255,255, 1)"  d="M11 2L13 2C14.6569 2 16 3.34315 16 5L16 7C16 7.55228 15.5523 8 15 8L9 8C8.44772 8 8 7.55228 8 7L8 5C8 3.34315 9.34315 2 11 2ZM11 4C10.4477 4 10 4.44772 10 5L10 7L9 7L9 6L15 6L15 7L14 7L14 5C14 4.44772 13.5523 4 13 4L11 4Z">
</path>
</svg>
