<svg xmlns="http://www.w3.org/2000/svg" xmlns:xlink="http://www.w3.org/1999/xlink" width="574.9990234375" height="649" viewBox="0 0 574.9990234375 649" fill="none">
<path   fill="rgba(123, 123, 123, 1)"  d="M57.5 0L517.499 0C549.255 0 574.999 25.7436 574.999 57.5L574.999 591.5C574.999 623.256 549.255 649 517.499 649L57.5 649C25.7436 649 0 623.256 0 591.5L0 57.5C0 25.7436 25.7436 0 57.5 0ZM57.5 45C50.5964 45 45 50.5964 45 57.5L45 591.5C45 598.404 50.5964 604 57.5 604L517.499 604C524.403 604 529.999 598.404 529.999 591.5L529.999 57.5C529.999 50.5964 524.403 45 517.499 45L57.5 45Z">
</path>
<path    stroke="rgba(123, 123, 123, 1)" stroke-width="45"    d="M210.026 12.5L209.236 624.5">
</path>
<path    stroke="rgba(123, 123, 123, 1)" stroke-width="45"    d="M23.0318 123.489L210.032 124.567">
</path>
<path    stroke="rgba(123, 123, 123, 1)" stroke-width="45"    d="M23.0318 223.551L210.032 224.629">
</path>
<path    stroke="rgba(123, 123, 123, 1)" stroke-width="45"    d="M23.0318 323.613L210.032 324.691">
</path>
<path    stroke="rgba(123, 123, 123, 1)" stroke-width="45"    d="M23.0318 523.736L210.032 524.814">
</path>
<path    stroke="rgba(123, 123, 123, 1)" stroke-width="45"    d="M23.0318 423.674L210.032 424.753">
</path>
</svg>
